<svg width="164" height="156" viewBox="0 0 164 156" fill="none" xmlns="http://www.w3.org/2000/svg">
<path d="M154.849 57.6971L155.197 58.8257L152.608 58.1676L144.15 56.0177L144.149 56.0175C138.441 54.563 134.422 55.3518 130.296 56.1644C130.296 56.1646 130.295 56.1648 130.294 56.165L130.238 56.1761C130.072 56.2091 129.905 56.2425 129.736 56.276C130.405 58.9963 130.723 61.8345 130.705 64.7794L130.705 64.7934L130.705 64.8073C130.557 70.8196 129.212 75.9086 126.387 81.2529L122.318 88.9596L121.068 91.3287L119.702 89.0243L115.255 81.5231C112.248 76.4659 108.846 74.1885 105.354 71.8533L105.353 71.8521C105.284 71.8057 105.214 71.7592 105.144 71.7125C104.005 70.9485 102.796 70.1387 101.621 69.2135C99.3084 71.7567 96.5696 73.9331 93.4269 75.768L93.4126 75.7764L93.3982 75.7844C88.1478 78.6966 83.079 80.1264 77.0333 80.4095L77.0291 80.4097L73.1227 80.5817L71.9245 80.6345L71.6094 79.4772L70.5806 75.6987L70.5798 75.6957C69.0003 69.8463 68.8276 64.5926 70.0272 58.6126L70.0302 58.5979L70.0334 58.5833C71.0802 53.8569 72.9914 49.5635 75.7447 45.8509C75.9286 45.5986 76.1177 45.3474 76.3112 45.0984C75.3434 44.0797 74.4623 43.0287 73.628 42.0241C70.9172 38.8035 68.2838 35.6789 62.9349 33.2225C62.9345 33.2223 62.934 33.222 62.9336 33.2218L55.0086 29.6055L52.5702 28.4928L54.7938 26.9964L62.0194 22.1338C62.0204 22.1332 62.0214 22.1325 62.0224 22.1318L154.849 57.6971ZM154.849 57.6971C160.801 66.7636 162.972 76.3251 162.413 86.0306C161.716 98.135 156.763 110.554 149.393 122.554C129.07 155.64 81.6176 163.829 43.2411 140.257C4.87278 116.691 -9.28617 70.6578 11.0365 37.5713C18.6391 25.1938 28.2224 14.6065 39.533 8.31698C50.6777 2.11966 63.5571 0.0575145 78.0665 4.64374L154.849 57.6971Z" stroke="white" stroke-width="3"/>
</svg>
