<svg width="226" height="225" viewBox="0 0 226 225" fill="none" xmlns="http://www.w3.org/2000/svg">
<path d="M182.849 97.6971L183.197 98.8257L180.608 98.1676L172.15 96.0177L172.149 96.0175C166.44 94.5629 162.422 95.3519 158.296 96.1646C158.295 96.1647 158.294 96.1648 158.294 96.165L158.238 96.1761C158.073 96.2091 157.905 96.2425 157.736 96.276C158.405 98.9963 158.723 101.835 158.705 104.779L158.705 104.793L158.705 104.807C158.557 110.82 157.212 115.909 154.387 121.253L150.318 128.96L149.068 131.329L147.702 129.024L143.255 121.523C140.248 116.466 136.846 114.188 133.354 111.853L133.353 111.852C133.283 111.806 133.214 111.759 133.144 111.712C132.004 110.948 130.796 110.139 129.621 109.213C127.308 111.757 124.57 113.933 121.427 115.768L121.413 115.776L121.398 115.784C116.148 118.697 111.079 120.126 105.033 120.41L105.029 120.41L101.123 120.582L99.9245 120.634L99.6094 119.477L98.5806 115.699L98.5798 115.696C97.0003 109.846 96.8276 104.593 98.0272 98.6126L98.0302 98.5979L98.0334 98.5833C99.0802 93.8569 100.991 89.5635 103.745 85.8509C103.929 85.5986 104.118 85.3474 104.311 85.0984C103.343 84.0797 102.462 83.0287 101.628 82.0241C98.9172 78.8035 96.2838 75.6789 90.9349 73.2225C90.9345 73.2223 90.934 73.222 90.9336 73.2218L83.0086 69.6055L80.5702 68.4928L82.7938 66.9964L90.0194 62.1338C90.0204 62.1332 90.0214 62.1325 90.0224 62.1318L182.849 97.6971ZM182.849 97.6971C188.801 106.764 190.972 116.325 190.413 126.031C189.716 138.135 184.763 150.554 177.393 162.554C157.07 195.64 109.618 203.829 71.2411 180.257C32.8728 156.691 18.7138 110.658 39.0365 77.5713C46.6391 65.1938 56.2224 54.6065 67.533 48.317C78.6777 42.1197 91.5571 40.0575 106.067 44.6437L182.849 97.6971Z" stroke="white" stroke-width="3"/>
<path d="M132.421 75.6033L131.954 75.8349C131.917 75.7752 131.885 75.7227 131.856 75.6753C131.786 75.5619 131.734 75.4779 131.677 75.3942L129.211 71.8029L133.294 73.0922C133.336 73.1011 133.402 73.1165 133.48 73.1416C133.571 73.1714 133.697 73.2208 133.833 73.3046L134.275 73.5761L134.455 74.0627C134.492 74.1614 134.511 74.2091 134.534 74.2664C134.557 74.321 134.582 74.3842 134.63 74.5084L132.609 75.5105M132.421 75.6033L132.48 75.5081L132.624 75.2731L132.692 75.2473L132.641 75.4079L132.609 75.5105M132.421 75.6033L132.263 75.8609C132.338 75.9068 132.407 75.9397 132.466 75.9632M132.421 75.6033L132.609 75.5105M132.609 75.5105L132.466 75.9632M132.466 75.9632C132.498 75.9762 132.527 75.9863 132.551 75.9942C132.618 76.0161 132.669 76.0266 132.685 76.0297C132.693 76.0314 132.699 76.0324 132.695 76.0316L132.691 76.031L132.685 76.0299L132.665 76.0262C132.65 76.0232 132.623 76.018 132.591 76.0107C132.559 76.0033 132.514 75.992 132.462 75.9755L132.466 75.9632ZM159.084 87.9008C162.536 87.2806 166.527 86.832 171.507 87.7005C169.921 83.7124 167.866 80.961 165.632 78.6068C162.949 75.8914 159.957 73.9422 156.734 72.6833L156.734 72.6833L156.726 72.68C153.495 71.3954 149.989 70.7798 146.167 70.9228C145.941 70.9357 145.695 70.9673 145.452 71.0143L140.038 72.0619L144.175 68.4162C149.846 63.4198 155.346 59.1402 159.454 56.0918C161.509 54.567 163.218 53.3487 164.428 52.5013C164.705 52.3072 164.956 52.1326 165.179 51.9782L164.8 51.4081C161.643 53.5763 153.171 59.5785 144.152 67.4873L142.131 69.2597L141.684 66.6088C141.411 64.9875 141.051 63.4596 140.591 62.0513C139.321 58.4375 137.463 55.397 135.096 52.8607L135.096 52.8607L135.088 52.8524C132.738 50.2966 129.848 48.2396 126.326 46.7271C123.332 45.5007 120.015 44.5926 115.718 44.5698C117.894 48.1409 118.98 51.4171 119.675 54.4058C120.005 55.8218 120.249 57.1869 120.476 58.4534C120.534 58.78 120.592 59.1 120.649 59.4127C120.933 60.9632 121.219 62.3483 121.65 63.6383L122.702 66.7887L119.643 65.4951C118.963 65.2075 118.321 64.9608 117.657 64.7577L117.65 64.7556L117.643 64.7534C114.332 63.7055 110.798 63.348 107.002 63.7832C103.789 64.2124 100.459 65.0683 96.7246 67.1814C101.488 69.8143 104.396 72.9186 106.785 75.7229C107.113 76.1087 107.429 76.4839 107.735 76.8478C110.052 79.6032 111.828 81.7144 114.643 82.9304L116.95 83.9264L114.979 85.4842C113.123 86.9515 111.515 88.5846 110.177 90.4005L110.177 90.4005L110.171 90.4089C108.096 93.1842 106.627 96.4122 105.807 100.147C105.104 103.677 104.843 107.492 105.968 112.341C110.942 111.942 114.491 110.534 117.633 108.792C120.945 106.865 123.575 104.474 125.589 101.66L125.597 101.649L125.605 101.638C126.452 100.497 127.167 99.2673 127.809 97.9424L129.218 95.0358L130.53 97.9869C131.997 101.286 134.518 102.976 137.911 105.252C138.105 105.381 138.301 105.513 138.5 105.647C141.678 107.784 145.307 110.377 148.63 115.105C150.332 111.171 150.823 107.771 150.902 104.526C150.927 100.704 150.195 97.2172 148.806 94.0418C148.391 93.0958 147.895 92.1719 147.35 91.2328L145.768 88.5039L148.884 88.999C151.395 89.3981 153.764 88.9323 156.731 88.3492C157.474 88.2032 158.255 88.0498 159.084 87.9008ZM133.224 73.0787C133.222 73.0784 133.219 73.0779 133.223 73.0785L133.224 73.0787Z" stroke="white" stroke-width="3"/>
</svg>
